<svg style="position: absolute; width: 0; height: 0; overflow: hidden;" aria-hidden="true" version="1.1"
  xmlns="http://www.w3.org/2000/svg">
  <defs>
    <symbol id="icon-warning" viewBox="2.5 0 43 43">
      <path
        d="M2 42 24 4l22 38Zm5.2-3h33.6L24 10Zm17-2.85q.65 0 1.075-.425.425-.425.425-1.075 0-.65-.425-1.075-.425-.425-1.075-.425-.65 0-1.075.425Q22.7 34 22.7 34.65q0 .65.425 1.075.425.425 1.075.425Zm-1.5-5.55h3V19.4h-3Zm1.3-6.1Z" />
    </symbol>
    <symbol id="icon-cart" viewBox="0 0 32 32">
      <path d="M10,24a3,3,0,1,0,3,3A3,3,0,0,0,10,24Zm0,4a1,1,0,1,1,1-1A1,1,0,0,1,10,28Z" />
      <path d="M22,24a3,3,0,1,0,3,3A3,3,0,0,0,22,24Zm0,4a1,1,0,1,1,1-1A1,1,0,0,1,22,28Z" />
      <path
        d="M6.78,6,6.35,4.27A3,3,0,0,0,3.44,2H2V4H3.44a1,1,0,0,1,1,.76L8,19.24H8l.37,1.49A3,3,0,0,0,11.31,23H25V21H11.31a1,1,0,0,1-1-.76l-.12-.5L25,16.25a3,3,0,0,0,2.23-2.19l2-8.06Zm18.55,7.58a1,1,0,0,1-.75.73L9.73,17.8,7.28,8H26.72Z" />
    </symbol>

    <symbol id="icon-bag" viewBox="0 0 50 50">
      <path
        d="M40,12H35V10.7C35,5.9,30.5,2,25,2S15,5.9,15,10.7V12H10a2,2,0,0,0-2,2V46a2,2,0,0,0,2,2H40a2,2,0,0,0,2-2V14A2,2,0,0,0,40,12ZM19,10.7C19,8.1,21.7,6,25,6s6,2.1,6,4.7V12H19V10.7ZM38,44H12V16h3v2a2,2,0,0,0,4,0V16H31v2a2,2,0,0,0,4,0V16h3V44Z" />
    </symbol>

    <symbol id="icon-laptop" viewBox="0 0 16 16">
      <path
        d="M13.5 3a.5.5 0 0 1 .5.5V11H2V3.5a.5.5 0 0 1 .5-.5h11zm-11-1A1.5 1.5 0 0 0 1 3.5V12h14V3.5A1.5 1.5 0 0 0 13.5 2h-11zM0 12.5h16a1.5 1.5 0 0 1-1.5 1.5h-13A1.5 1.5 0 0 1 0 12.5z" />
    </symbol>

    <symbol id="icon-box" viewBox="0 0 24 24" fill="none">
      <path
        d="M4 8L12 3L16 5.5M4 8V16L12 21M4 8L8 10.5M12 13L20 8M12 13V21M12 13L8 10.5M20 8V16L12 21M20 8L16 5.5M8 10.5L16 5.5"
        stroke="white" stroke-linecap="round" stroke-linejoin="round" stroke-width="2" />
    </symbol>

    <symbol id="icon-favorites" viewBox="0 0 32 32">
      <path
        d="M16,29.41,4.34,17.77a8.13,8.13,0,0,1,0-11.41,8,8,0,0,1,11.33,0L16,6.7l.33-.34a8,8,0,0,1,11.33,0,8.14,8.14,0,0,1,0,11.41ZM10,6A5.94,5.94,0,0,0,5.75,7.77a6.13,6.13,0,0,0,0,8.59L16,26.59,26.25,16.36a6.13,6.13,0,0,0,0-8.59,6,6,0,0,0-8.49,0L16,9.51,14.25,7.78A6,6,0,0,0,10,6Z" />
    </symbol>

    <symbol id="icon-liked" viewBox="0 0 256 256">
      <path d="M128,216S28,160,28,92A52,52,0,0,1,128,72h0A52,52,0,0,1,228,92C228,160,128,216,128,216Z"
        stroke-linecap="round" stroke-linejoin="round" stroke-width="16" />
    </symbol>

    <symbol id="icon-user" viewBox="0 0 24 24" fill="none">
      <circle cx="12" cy="8" r="5" stroke="white" stroke-linecap="round" stroke-linejoin="round" stroke-width="1.5" />
      <path d="M20 21C20 16.5817 16.4183 13 12 13C7.58172 13 4 16.5817 4 21" stroke="white" stroke-linecap="round"
        stroke-linejoin="round" stroke-width="1.5" />
      <path d="M20 21C20 16.5817 16.4183 13 12 13C7.58172 13 4 16.5817 4 21" stroke="white" stroke-linecap="round"
        stroke-linejoin="round" stroke-width="1.5" />
    </symbol>

    <symbol id="icon-macbook" viewBox="-10.5 -221 1024 1024">
      <path
        d="M888.06,521.5V29c0-16.02-12.979-29-29-29h-715.5c-16.01,0-29,12.98-29,29v492.5H0V554l0,0  c3.74,4.35,22.35,17.79,73.83,16.67l844-0.34c0,0,65.88,0.95,88.67-16.33l0,0v-32.5H888.06z M501.31,21.33  c2.28,0,4.13,1.85,4.13,4.13c0,2.28-1.851,4.12-4.13,4.12c-2.28,0-4.12-1.84-4.12-4.12C497.19,23.18,499.03,21.33,501.31,21.33z   M156.81,44h689v434h-689V44z M575.5,527.75c0,4.97-4.03,9-9,9h-136c-4.97,0-9-4.03-9-9V522h154V527.75z M946.38,538.75h-34.76  c-0.62,0-1.12-0.5-1.12-1.13c0-0.62,0.5-1.12,1.12-1.12h34.76c0.62,0,1.12,0.5,1.12,1.12C947.5,538.25,947,538.75,946.38,538.75z" />
    </symbol>

    <symbol id="icon-home" viewBox="0 0 24 24" fill="none">
      <path
        d="M20 19V10.5C20 10.1852 19.8518 9.88885 19.6 9.7L12.6 4.45C12.2444 4.18333 11.7556 4.18333 11.4 4.45L4.4 9.7C4.14819 9.88885 4 10.1852 4 10.5V19C4 19.5523 4.44772 20 5 20H9C9.55228 20 10 19.5523 10 19V16C10 15.4477 10.4477 15 11 15H13C13.5523 15 14 15.4477 14 16V19C14 19.5523 14.4477 20 15 20H19C19.5523 20 20 19.5523 20 19Z"
        stroke="white" stroke-linecap="round" stroke-linejoin="round" stroke-width="2" />
    </symbol>

    <symbol id="icon-login" viewBox="0 0 24 24" fill="none">
      <path d="M9 3H17C18.1046 3 19 3.89543 19 5V19C19 20.1046 18.1046 21 17 21H9" stroke="white" stroke-linecap="round"
        stroke-linejoin="round" stroke-width="2" />
      <path d="M15 12L11 8M15 12L11 16M15 12H5" stroke="white" stroke-linecap="round" stroke-linejoin="round"
        stroke-width="2" />
    </symbol>

    <symbol id="icon-logout" viewBox="0 0 24 24" fill="none">
      <path d="M15 3H7C5.89543 3 5 3.89543 5 5V19C5 20.1046 5.89543 21 7 21H15" stroke="white" stroke-linecap="round"
        stroke-linejoin="round" stroke-width="2" />
      <path d="M19 12L15 8M19 12L15 16M19 12H9" stroke="white" stroke-linecap="round" stroke-linejoin="round"
        stroke-width="2" />
    </symbol>
  </defs>
</svg>
